<svg width="41" height="40" viewBox="0 0 41 40" fill="none" xmlns="http://www.w3.org/2000/svg">
<path d="M20.7613 20.2387L25.3326 15.6674M37.5227 20.2387C37.5227 29.4957 30.0184 37 20.7613 37C11.5043 37 4 29.4957 4 20.2387C4 10.9816 11.5043 3.47731 20.7613 3.47731M31.4277 20.2387C31.4277 26.1295 26.6522 30.905 20.7613 30.905C14.8705 30.905 10.095 26.1295 10.095 20.2387C10.095 14.3478 14.8705 9.57234 20.7613 9.57234M25.3326 14.9055V8.23078C25.3326 8.02569 25.4153 7.82925 25.562 7.6859L30.1333 3.21852C30.6157 2.74705 31.4277 3.08885 31.4277 3.7634V8.81047C31.4277 9.23124 31.7688 9.57234 32.1895 9.57234H37.2366C37.9111 9.57234 38.2529 10.3843 37.7815 10.8667L33.3141 15.438C33.1708 15.5847 32.9743 15.6674 32.7692 15.6674H26.0945C25.6737 15.6674 25.3326 15.3263 25.3326 14.9055Z" stroke="white" stroke-width="1.5" stroke-linecap="round"/>
</svg>
