<svg width="41" height="40" viewBox="0 0 41 40" fill="none" xmlns="http://www.w3.org/2000/svg">
<path d="M28.166 6.66634C28.166 8.50729 23.6889 9.99967 18.166 9.99967C12.6432 9.99967 8.16602 8.50729 8.16602 6.66634M28.166 6.66634C28.166 4.82539 23.6889 3.33301 18.166 3.33301C12.6432 3.33301 8.16602 4.82539 8.16602 6.66634M28.166 6.66634V13.333M8.16602 6.66634V13.333C8.16602 15.174 12.6432 16.6663 18.166 16.6663C23.6889 16.6663 28.166 15.174 28.166 13.333M34.8327 16.4767C34.8327 18.3176 30.3555 19.81 24.8327 19.81C19.3098 19.81 14.8327 18.3176 14.8327 16.4767V23.1434M34.8327 16.4767C34.8327 15.0253 32.05 13.7906 28.166 13.333M34.8327 16.4767V23.1434C34.8327 24.9843 30.3555 26.4767 24.8327 26.4767C19.3098 26.4767 14.8327 24.9843 14.8327 23.1434M8.16602 26.2871C8.16602 28.128 12.6432 29.6204 18.166 29.6204C23.6889 29.6204 28.166 28.128 28.166 26.2871V32.9538C28.166 34.7947 23.6889 36.2871 18.166 36.2871C12.6432 36.2871 8.16602 34.7947 8.16602 32.9538V26.2871ZM8.16602 26.2871C8.16602 24.8357 10.9487 23.601 14.8327 23.1434" stroke="white" stroke-width="1.5"/>
</svg>
