<svg width="41" height="40" viewBox="0 0 41 40" fill="none" xmlns="http://www.w3.org/2000/svg">
<path d="M20.5 28.7765C27.4919 28.7765 33.1599 23.0063 33.1599 15.8883C33.1599 8.77027 27.4919 3 20.5 3C13.5081 3 7.84009 8.77027 7.84009 15.8883C7.84009 23.0063 13.5081 28.7765 20.5 28.7765ZM20.5 28.7765L11.7511 37.6833C11.0864 38.3599 9.95007 37.8807 9.95007 36.9238V35.2207C9.95007 32.848 8.06073 30.9246 5.7301 30.9246H4.05711C3.11721 30.9246 2.64651 29.7677 3.31111 29.0911L8.89508 23.4064M20.5 28.7765L29.2489 37.6833C29.9135 38.3599 31.0499 37.8807 31.0499 36.9238V35.2207C31.0499 32.848 32.9393 30.9246 35.2699 30.9246H36.9429C37.8828 30.9246 38.3535 29.7677 37.6889 29.0911L32.1049 23.4064M19.7082 15.0826H21.2907M19.7082 16.6936H21.2907M22.61 15.8883C22.61 17.0746 21.6653 18.0363 20.5 18.0363C19.3347 18.0363 18.39 17.0746 18.39 15.8883C18.39 14.7019 19.3347 13.7402 20.5 13.7402C21.6653 13.7402 22.61 14.7019 22.61 15.8883Z" stroke="white" stroke-width="1.5" stroke-linecap="round"/>
</svg>
