<svg width="16" height="16" viewBox="0 0 16 16" fill="none" xmlns="http://www.w3.org/2000/svg">
<g clip-path="url(#clip0_500_4684)">
<path d="M3.58114 15.6769C3.40584 15.6769 3.23177 15.6222 3.0832 15.5148C2.80646 15.3142 2.67719 14.9695 2.75251 14.6368L3.78183 10.1027L0.291017 7.04131C0.0344181 6.8173 -0.0636068 6.46256 0.0417426 6.13797C0.147092 5.81398 0.43372 5.58461 0.773085 5.55323L5.39186 5.13391L7.21795 0.860487C7.3526 0.546514 7.65925 0.34375 7.99996 0.34375C8.34066 0.34375 8.64731 0.546514 8.78196 0.859754L10.6081 5.13391L15.2261 5.55323C15.5662 5.58387 15.8528 5.81398 15.9582 6.13797C16.0635 6.46195 15.9661 6.8173 15.7095 7.04131L12.2187 10.1021L13.248 14.6361C13.3235 14.9695 13.1941 15.3142 12.9174 15.5142C12.6414 15.7141 12.2734 15.7295 11.9827 15.5548L7.99996 13.1748L4.01719 15.5562C3.88254 15.6361 3.73251 15.6769 3.58114 15.6769ZM7.99996 12.1495C8.15133 12.1495 8.30123 12.1901 8.436 12.2701L12.1948 14.5182L11.2233 10.2387C11.154 9.93408 11.2574 9.61608 11.4927 9.41002L14.7888 6.51932L10.428 6.12332C10.114 6.09463 9.844 5.89724 9.72131 5.60792L7.99996 1.5751L6.27652 5.60853C6.15518 5.89589 5.88515 6.09329 5.57191 6.12197L1.21047 6.51798L4.50646 9.40868C4.74255 9.61535 4.84582 9.93274 4.77587 10.238L3.80515 14.5175L7.56391 12.2701C7.69856 12.1901 7.84858 12.1495 7.99996 12.1495ZM5.35658 5.21656C5.35658 5.21656 5.35658 5.21729 5.35584 5.2179L5.35658 5.21656ZM10.642 5.2146L10.6427 5.21595C10.6427 5.21521 10.6427 5.21521 10.642 5.2146Z" fill="#003757"/>
</g>
<defs>
<clipPath id="clip0_500_4684">
<rect width="16" height="16" fill="white"/>
</clipPath>
</defs>
</svg>
